%
M48
M72
T01C0.04000
T02C0.06500
T03C0.20000
%
T01
X125000Y70250
X125000Y85250
X142500Y101500
X152500Y101500
X172500Y101500
X192500Y101500
X182500Y77750
X182500Y62750
X170000Y59000
X182500Y47750
X151250Y74000
X128750Y107750
X128750Y122750
X142500Y139000
X152500Y139000
X172500Y139000
X183750Y151500
X192500Y139000
X183750Y166500
X183750Y181500
X211250Y185250
X211250Y200250
X211250Y215250
X291250Y216500
X293750Y200250
X303750Y200250
X313750Y200250
X323750Y200250
X333750Y200250
X333750Y190250
X323750Y190250
X313750Y190250
X303750Y190250
X293750Y190250
X291250Y172750
X293750Y157750
X283750Y157750
X273750Y157750
X273750Y147750
X283750Y147750
X293750Y147750
X303750Y147750
X313750Y147750
X323750Y147750
X333750Y147750
X333750Y157750
X323750Y157750
X313750Y157750
X303750Y157750
X303750Y137750
X293750Y137750
X283750Y137750
X273750Y137750
X273750Y127750
X283750Y127750
X293750Y127750
X303750Y127750
X313750Y127750
X323750Y127750
X333750Y127750
X333750Y117750
X323750Y117750
X313750Y117750
X303750Y117750
X293750Y117750
X283750Y117750
X273750Y117750
X253750Y117750
X243750Y117750
X243750Y127750
X253750Y127750
X253750Y137750
X243750Y137750
X243750Y147750
X253750Y147750
X253750Y157750
X243750Y157750
X313750Y137750
X323750Y137750
X333750Y137750
X333750Y87750
X323750Y87750
X313750Y87750
X303750Y87750
X293750Y87750
X283750Y87750
X273750Y87750
X273750Y77750
X283750Y77750
X293750Y77750
X303750Y77750
X313750Y77750
X323750Y77750
X333750Y77750
X333750Y67750
X323750Y67750
X313750Y67750
X303750Y67750
X293750Y67750
X283750Y67750
X273750Y67750
X273750Y57750
X283750Y57750
X293750Y57750
X303750Y57750
X313750Y57750
X323750Y57750
X333750Y57750
X333750Y47750
X323750Y47750
X313750Y47750
X303750Y47750
X293750Y47750
X283750Y47750
X273750Y47750
X253750Y47750
X243750Y47750
X243750Y57750
X253750Y57750
X253750Y67750
X243750Y67750
X243750Y77750
X253750Y77750
X253750Y87750
X243750Y87750
X223750Y44000
X223750Y29000
X223750Y14000
X293750Y15250
X303750Y15250
X313750Y15250
X323750Y15250
X333750Y15250
X333750Y25250
X323750Y25250
X313750Y25250
X303750Y25250
X293750Y25250
X123750Y145250
X108750Y145250
X95000Y147750
X77500Y147750
X53750Y147750
X53750Y132750
X53750Y117750
X26407Y158518
X16959Y159935
X16959Y185565
X26407Y186982
X56250Y182750
X123750Y160250
T02
X22150Y102750
X60350Y102750
X54850Y75850
X54850Y57750
X27650Y57750
X27650Y75850
X27650Y39650
X54850Y39650
X60350Y12750
X22150Y12750
T03
X112250Y50750
X112250Y179750
M30
