%TF.GenerationSoftware,KiCad,Pcbnew,(6.0.7)*%
%TF.CreationDate,2023-09-20T08:42:35-04:00*%
%TF.ProjectId,B-BOP,422d424f-502e-46b6-9963-61645f706362,rev?*%
%TF.SameCoordinates,Original*%
%TF.FileFunction,Legend,Bot*%
%TF.FilePolarity,Positive*%
%FSLAX46Y46*%
G04 Gerber Fmt 4.6, Leading zero omitted, Abs format (unit mm)*
G04 Created by KiCad (PCBNEW (6.0.7)) date 2023-09-20 08:42:35*
%MOMM*%
%LPD*%
G01*
G04 APERTURE LIST*
%ADD10C,0.100000*%
%ADD11C,0.279400*%
%ADD12C,0.203200*%
%ADD13C,0.254000*%
G04 APERTURE END LIST*
D10*
X2857500Y698500D02*
X2857500Y57848500D01*
X2857500Y57848500D02*
X86677500Y57848500D01*
X86677500Y57848500D02*
X86677500Y698500D01*
X86677500Y698500D02*
X2857500Y698500D01*
D11*
X60222130Y49669700D02*
X61222130Y49669700D01*
X61222130Y49669700D02*
X61222130Y51169570D01*
X61222130Y51169570D02*
X60222130Y51169570D01*
X60722000Y50419760D02*
X61222130Y50419760D01*
X61859410Y49669700D02*
X61859410Y51169570D01*
X62859160Y51169570D02*
X61859410Y49669700D01*
X62859160Y49669700D02*
X62859160Y51169570D01*
X63496440Y50669700D02*
X63496440Y49669700D01*
X63496440Y50419760D02*
X64496440Y50419760D01*
X64496440Y50669700D02*
X63996320Y51169570D01*
X63996320Y51169570D02*
X63496440Y50669700D01*
X64496440Y50669700D02*
X64496440Y49669700D01*
X65133730Y49669700D02*
X66133470Y49669700D01*
X66133470Y49669700D02*
X66133470Y51169570D01*
X66770760Y50919630D02*
X66770760Y50419760D01*
X66770760Y50419760D02*
X67020690Y50169570D01*
X67020690Y50169570D02*
X67770760Y50169570D01*
X67770760Y49669700D02*
X67770760Y51169570D01*
X67770760Y51169570D02*
X67020690Y51169570D01*
X67020690Y51169570D02*
X66770760Y50919630D01*
X66952110Y52336700D02*
X66952110Y53836570D01*
X66952110Y53836570D02*
X66202050Y53836570D01*
X66202050Y53836570D02*
X65952120Y53586630D01*
X65952120Y53586630D02*
X65952120Y53086760D01*
X65952120Y53086760D02*
X66202050Y52836570D01*
X66202050Y52836570D02*
X66952110Y52836570D01*
X66452240Y52836570D02*
X65952120Y52336700D01*
X65315080Y52586640D02*
X65064890Y52336700D01*
X65064890Y52336700D02*
X64565020Y52336700D01*
X64565020Y52336700D02*
X64315090Y52586640D01*
X64315090Y52586640D02*
X64315090Y53586630D01*
X64315090Y53586630D02*
X64565020Y53836570D01*
X64565020Y53836570D02*
X65064890Y53836570D01*
X65064890Y53836570D02*
X65315080Y53586630D01*
X65315080Y53586630D02*
X65315080Y52586640D01*
X63677800Y52586640D02*
X63427860Y52336700D01*
X63427860Y52336700D02*
X62927990Y52336700D01*
X62927990Y52336700D02*
X62677800Y52586640D01*
X62677800Y52586640D02*
X62677800Y53836570D01*
X62040770Y53836570D02*
X61040770Y52336700D01*
X61040770Y52336700D02*
X61040770Y53836570D01*
X60403490Y53836570D02*
X59653680Y53836570D01*
X59653680Y53836570D02*
X59403490Y53586630D01*
X59403490Y53586630D02*
X59403490Y52586640D01*
X59403490Y52586640D02*
X59653680Y52336700D01*
X59653680Y52336700D02*
X60403490Y52336700D01*
X60403490Y52336700D02*
X60403490Y53836570D01*
X60403490Y55003700D02*
X60403490Y56003700D01*
X60403490Y56003700D02*
X59903610Y56503570D01*
X59903610Y56503570D02*
X59403490Y56003700D01*
X59403490Y56003700D02*
X59403490Y55003700D01*
X58766460Y55003700D02*
X58766460Y56503570D01*
X58766460Y56503570D02*
X58016390Y56503570D01*
X58016390Y56503570D02*
X57766460Y56253630D01*
X57766460Y56253630D02*
X57766460Y55753760D01*
X57766460Y55753760D02*
X58016390Y55503570D01*
X58016390Y55503570D02*
X58766460Y55503570D01*
X58266330Y55503570D02*
X57766460Y55003700D01*
X57129170Y55003700D02*
X56379360Y55003700D01*
X56379360Y55003700D02*
X56129170Y55253640D01*
X56129170Y55253640D02*
X56129170Y56253630D01*
X56129170Y56253630D02*
X56379360Y56503570D01*
X56379360Y56503570D02*
X57129170Y56503570D01*
X57129170Y56503570D02*
X57129170Y55003700D01*
X59403490Y55753760D02*
X60403490Y55753760D01*
X61040770Y56253630D02*
X61040770Y55253640D01*
X61040770Y55253640D02*
X61290710Y55003700D01*
X61290710Y55003700D02*
X61790580Y55003700D01*
X61790580Y55003700D02*
X62040770Y55253640D01*
X62040770Y55253640D02*
X62040770Y56253630D01*
X62040770Y56253630D02*
X61790580Y56503570D01*
X61790580Y56503570D02*
X61290710Y56503570D01*
X61290710Y56503570D02*
X61040770Y56253630D01*
X62677800Y56253630D02*
X62677800Y56003700D01*
X62677800Y56003700D02*
X62927990Y55753760D01*
X62927990Y55753760D02*
X63677800Y55753760D01*
X63677800Y56503570D02*
X62927990Y56503570D01*
X62927990Y56503570D02*
X62677800Y56253630D01*
X62927990Y55753760D02*
X62677800Y55503570D01*
X62677800Y55503570D02*
X62677800Y55253640D01*
X62677800Y55253640D02*
X62927990Y55003700D01*
X62927990Y55003700D02*
X63677800Y55003700D01*
X63677800Y55003700D02*
X63677800Y56503570D01*
X64315090Y56253630D02*
X64565020Y56503570D01*
X64565020Y56503570D02*
X65315080Y56503570D01*
X65315080Y56503570D02*
X65315080Y55003700D01*
X65315080Y55003700D02*
X64565020Y55003700D01*
X64565020Y55003700D02*
X64315090Y55253640D01*
X64315090Y55253640D02*
X64315090Y56253630D01*
X65952120Y56003700D02*
X65952120Y55003700D01*
X66952110Y55003700D02*
X66952110Y56003700D01*
X66952110Y56003700D02*
X66452240Y56503570D01*
X66452240Y56503570D02*
X65952120Y56003700D01*
X65952120Y55753760D02*
X66952110Y55753760D01*
X67589400Y56503570D02*
X68589400Y56503570D01*
X68589400Y56503570D02*
X68589400Y55003700D01*
X68589400Y55003700D02*
X67589400Y55003700D01*
X68089270Y55753760D02*
X68589400Y55753760D01*
X69226430Y55753760D02*
X69476620Y55503570D01*
X69476620Y55503570D02*
X70226430Y55503570D01*
X70226430Y55003700D02*
X70226430Y56503570D01*
X70226430Y56503570D02*
X69476620Y56503570D01*
X69476620Y56503570D02*
X69226430Y56253630D01*
X69226430Y56253630D02*
X69226430Y55753760D01*
X69726560Y55503570D02*
X69226430Y55003700D01*
X68339210Y53836570D02*
X67839340Y53836570D01*
X67839340Y53836570D02*
X67589400Y53586630D01*
X67589400Y53086760D02*
X68089270Y53086760D01*
X67589400Y53086760D02*
X67589400Y52586640D01*
X67589400Y52586640D02*
X67839340Y52336700D01*
X67839340Y52336700D02*
X68339210Y52336700D01*
X68339210Y52336700D02*
X68589400Y52586640D01*
X68589400Y52586640D02*
X68589400Y53586630D01*
X68589400Y53586630D02*
X68339210Y53836570D01*
X70863710Y55253640D02*
X71113650Y55003700D01*
X71113650Y55003700D02*
X71863710Y55003700D01*
X71863710Y55003700D02*
X71863710Y56503570D01*
X71863710Y56503570D02*
X71113650Y56503570D01*
X71113650Y56503570D02*
X70863710Y56253630D01*
X70863710Y56253630D02*
X70863710Y56003700D01*
X70863710Y56003700D02*
X71113650Y55753760D01*
X71113650Y55753760D02*
X71863710Y55753760D01*
X71113650Y55753760D02*
X70863710Y55503570D01*
X70863710Y55503570D02*
X70863710Y55253640D01*
X63677800Y53836570D02*
X63677800Y52586640D01*
X62040770Y52336700D02*
X62040770Y53836570D01*
X19793710Y55507640D02*
X19543520Y55257700D01*
X19543520Y55257700D02*
X19043650Y55257700D01*
X19043650Y55257700D02*
X18793710Y55507640D01*
X18793710Y55507640D02*
X18793710Y56757570D01*
X18156430Y56507630D02*
X18156430Y56257700D01*
X18156430Y56257700D02*
X17906490Y56007760D01*
X17906490Y56007760D02*
X17406620Y56007760D01*
X17406620Y56007760D02*
X17156430Y55757570D01*
X17156430Y55757570D02*
X17156430Y55507640D01*
X17156430Y55507640D02*
X17406620Y55257700D01*
X17406620Y55257700D02*
X17906490Y55257700D01*
X17906490Y55257700D02*
X18156430Y55507640D01*
X18156430Y56507630D02*
X17906490Y56757570D01*
X17906490Y56757570D02*
X17406620Y56757570D01*
X17406620Y56757570D02*
X17156430Y56507630D01*
X16519400Y56757570D02*
X15769340Y56757570D01*
X15769340Y56757570D02*
X15519400Y56507630D01*
X15519400Y56507630D02*
X15519400Y56257700D01*
X15519400Y56257700D02*
X15769340Y56007760D01*
X15769340Y56007760D02*
X16519400Y56007760D01*
X16519400Y56757570D02*
X16519400Y55257700D01*
X16519400Y55257700D02*
X15769340Y55257700D01*
X15769340Y55257700D02*
X15519400Y55507640D01*
X15519400Y55507640D02*
X15519400Y55757570D01*
X15519400Y55757570D02*
X15769340Y56007760D01*
X15700760Y54090570D02*
X14950690Y54090570D01*
X14950690Y54090570D02*
X14700760Y53840630D01*
X14700760Y53840630D02*
X14700760Y53340760D01*
X14700760Y53340760D02*
X14950690Y53090570D01*
X14950690Y53090570D02*
X15700760Y53090570D01*
X15700760Y52590700D02*
X15700760Y54090570D01*
X14063470Y54090570D02*
X14063470Y52590700D01*
X14063470Y52590700D02*
X13063730Y52590700D01*
X12426440Y52590700D02*
X12426440Y53590700D01*
X12426440Y53590700D02*
X11926320Y54090570D01*
X11926320Y54090570D02*
X11426440Y53590700D01*
X11426440Y53590700D02*
X11426440Y52590700D01*
X10789160Y52590700D02*
X10789160Y54090570D01*
X10789160Y54090570D02*
X9789410Y52590700D01*
X9789410Y52590700D02*
X9789410Y54090570D01*
X9152130Y54090570D02*
X9152130Y52590700D01*
X9152130Y52590700D02*
X8152130Y52590700D01*
X8652000Y53340760D02*
X9152130Y53340760D01*
X9152130Y54090570D02*
X8152130Y54090570D01*
X8083550Y55257700D02*
X7583680Y55257700D01*
X7583680Y55257700D02*
X7333490Y55507640D01*
X7333490Y55507640D02*
X7333490Y56757570D01*
X6696460Y56757570D02*
X5696460Y55257700D01*
X5696460Y55257700D02*
X5696460Y56757570D01*
X5059170Y56757570D02*
X4309360Y56757570D01*
X4309360Y56757570D02*
X4059170Y56507630D01*
X4059170Y56507630D02*
X4059170Y55507640D01*
X4059170Y55507640D02*
X4309360Y55257700D01*
X4309360Y55257700D02*
X5059170Y55257700D01*
X5059170Y55257700D02*
X5059170Y56757570D01*
X6696460Y56757570D02*
X6696460Y55257700D01*
X8083550Y55257700D02*
X8333490Y55507640D01*
X8333490Y55507640D02*
X8333490Y56757570D01*
X8970770Y56507630D02*
X9220710Y56757570D01*
X9220710Y56757570D02*
X9720580Y56757570D01*
X9720580Y56757570D02*
X9970770Y56507630D01*
X9970770Y56507630D02*
X9970770Y55507640D01*
X9970770Y55507640D02*
X9720580Y55257700D01*
X9720580Y55257700D02*
X9220710Y55257700D01*
X9220710Y55257700D02*
X8970770Y55507640D01*
X8970770Y55507640D02*
X8970770Y56507630D01*
X10607800Y56507630D02*
X10607800Y56007760D01*
X10607800Y56007760D02*
X10857990Y55757570D01*
X10857990Y55757570D02*
X11607800Y55757570D01*
X11607800Y55257700D02*
X11607800Y56757570D01*
X11607800Y56757570D02*
X10857990Y56757570D01*
X10857990Y56757570D02*
X10607800Y56507630D01*
X11107930Y55757570D02*
X10607800Y55257700D01*
X12245090Y55507640D02*
X12245090Y56007760D01*
X12245090Y56007760D02*
X12744960Y56007760D01*
X12245090Y56507630D02*
X12495020Y56757570D01*
X12495020Y56757570D02*
X12994890Y56757570D01*
X12994890Y56757570D02*
X13245080Y56507630D01*
X13245080Y56507630D02*
X13245080Y55507640D01*
X13245080Y55507640D02*
X12994890Y55257700D01*
X12994890Y55257700D02*
X12495020Y55257700D01*
X12495020Y55257700D02*
X12245090Y55507640D01*
X12426440Y53340760D02*
X11426440Y53340760D01*
X19793710Y55507640D02*
X19793710Y56757570D01*
D12*
X23711150Y50562760D02*
X23888950Y50562760D01*
X23888950Y50562760D02*
X24067010Y50384710D01*
X24067010Y50384710D02*
X24067010Y49851060D01*
X24067010Y49851060D02*
X23711150Y49851060D01*
X23711150Y49851060D02*
X23533100Y50028860D01*
X23533100Y50028860D02*
X23533100Y50384710D01*
X23533100Y50384710D02*
X23711150Y50562760D01*
X24422860Y50206910D02*
X24067010Y49851060D01*
X24244810Y49393350D02*
X24067010Y49215550D01*
X24067010Y49215550D02*
X23888950Y49393350D01*
X23888950Y49393350D02*
X23711150Y49393350D01*
X23711150Y49393350D02*
X23533100Y49215550D01*
X23533100Y49215550D02*
X23533100Y48859440D01*
X23533100Y48859440D02*
X23711150Y48681640D01*
X23711150Y48223930D02*
X23533100Y48046130D01*
X23533100Y48046130D02*
X23533100Y47690020D01*
X23533100Y47690020D02*
X23711150Y47512220D01*
X24067010Y47512220D02*
X24244810Y47868080D01*
X24244810Y47868080D02*
X24244810Y48046130D01*
X24244810Y48046130D02*
X24067010Y48223930D01*
X24067010Y48223930D02*
X23711150Y48223930D01*
X24067010Y47512220D02*
X24600920Y47512220D01*
X24600920Y47512220D02*
X24600920Y48223930D01*
X24422860Y48681640D02*
X24600920Y48859440D01*
X24600920Y48859440D02*
X24600920Y49215550D01*
X24600920Y49215550D02*
X24422860Y49393350D01*
X24422860Y49393350D02*
X24244810Y49393350D01*
X24067010Y49215550D02*
X24067010Y49037490D01*
X24422860Y50206910D02*
X24600920Y50562760D01*
X24422860Y47054520D02*
X24244810Y47054520D01*
X24244810Y47054520D02*
X23533100Y46342810D01*
X23533100Y46342810D02*
X23533100Y47054520D01*
X24422860Y47054520D02*
X24600920Y46876720D01*
X24600920Y46876720D02*
X24600920Y46520860D01*
X24600920Y46520860D02*
X24422860Y46342810D01*
X24422860Y45885100D02*
X23711150Y45885100D01*
X23711150Y45885100D02*
X23533100Y45707300D01*
X23533100Y45707300D02*
X23533100Y45351450D01*
X23533100Y45351450D02*
X23711150Y45173390D01*
X23711150Y45173390D02*
X24422860Y45173390D01*
X24422860Y45173390D02*
X24600920Y45351450D01*
X24600920Y45351450D02*
X24600920Y45707300D01*
X24600920Y45707300D02*
X24422860Y45885100D01*
X24422860Y44715680D02*
X24600920Y44537880D01*
X24600920Y44537880D02*
X24600920Y44182030D01*
X24600920Y44182030D02*
X24422860Y44003980D01*
X24422860Y44003980D02*
X23711150Y44003980D01*
X23711150Y44003980D02*
X23533100Y44182030D01*
X23533100Y44182030D02*
X23533100Y44537880D01*
X23533100Y44537880D02*
X23711150Y44715680D01*
X24422860Y43546520D02*
X24600920Y43546520D01*
X24422860Y43546520D02*
X24067010Y43190410D01*
X24067010Y43190410D02*
X23533100Y43190410D01*
X24067010Y43190410D02*
X24422860Y42834560D01*
X24422860Y42834560D02*
X24600920Y42834560D01*
X24600920Y42377110D02*
X24600920Y41665140D01*
X24600920Y41665140D02*
X23533100Y41665140D01*
X23533100Y41665140D02*
X23533100Y42377110D01*
X24067010Y42021000D02*
X24067010Y41665140D01*
X24067010Y41207690D02*
X24067010Y40495730D01*
X23533100Y40495730D02*
X24600920Y40495730D01*
X24600920Y41207690D02*
X23533100Y41207690D01*
X23427940Y33300420D02*
X22894290Y33300420D01*
X22894290Y33300420D02*
X22716240Y33122360D01*
X22716240Y33122360D02*
X22716240Y32766510D01*
X22716240Y32766510D02*
X22894290Y32588450D01*
X22894290Y32588450D02*
X23427940Y32588450D01*
X23072090Y32588450D02*
X22716240Y32232600D01*
X23427940Y32232600D02*
X23427940Y33300420D01*
X23885650Y33300420D02*
X24597360Y33300420D01*
X24597360Y33300420D02*
X24597360Y32232600D01*
X24597360Y32232600D02*
X23885650Y32232600D01*
X24241510Y32766510D02*
X24597360Y32766510D01*
X25055070Y33300420D02*
X25766780Y33300420D01*
X25410920Y33300420D02*
X25410920Y32232600D01*
X26224480Y32232600D02*
X26580340Y32588450D01*
X26402280Y32588450D02*
X26936190Y32588450D01*
X26936190Y32232600D02*
X26936190Y33300420D01*
X26936190Y33300420D02*
X26402280Y33300420D01*
X26402280Y33300420D02*
X26224480Y33122360D01*
X26224480Y33122360D02*
X26224480Y32766510D01*
X26224480Y32766510D02*
X26402280Y32588450D01*
X27393900Y32232600D02*
X28105610Y32232600D01*
X28105610Y32232600D02*
X28105610Y33300420D01*
X28105610Y33300420D02*
X27393900Y33300420D01*
X27749750Y32766510D02*
X28105610Y32766510D01*
X28563320Y32588450D02*
X28563320Y33300420D01*
X29275020Y33300420D02*
X29275020Y32588450D01*
X29275020Y32588450D02*
X28919170Y32232600D01*
X28919170Y32232600D02*
X28563320Y32588450D01*
X28512260Y31395420D02*
X28690320Y31217360D01*
X28690320Y31217360D02*
X28690320Y30505650D01*
X28690320Y30505650D02*
X28512260Y30327600D01*
X28512260Y30327600D02*
X28156410Y30327600D01*
X28156410Y30327600D02*
X27978610Y30505650D01*
X27978610Y30505650D02*
X27978610Y31217360D01*
X27978610Y31217360D02*
X28156410Y31395420D01*
X28156410Y31395420D02*
X28512260Y31395420D01*
X29147770Y31217360D02*
X29147770Y30861510D01*
X29147770Y30861510D02*
X29325820Y30683450D01*
X29325820Y30683450D02*
X29859730Y30683450D01*
X29859730Y30327600D02*
X29859730Y31395420D01*
X29859730Y31395420D02*
X29325820Y31395420D01*
X29325820Y31395420D02*
X29147770Y31217360D01*
X29503880Y30683450D02*
X29147770Y30327600D01*
X29275020Y29490420D02*
X29275020Y28422600D01*
X29275020Y28422600D02*
X28563320Y28422600D01*
X28105610Y28422600D02*
X28105610Y29134310D01*
X28105610Y29134310D02*
X27749750Y29490420D01*
X27749750Y29490420D02*
X27393900Y29134310D01*
X27393900Y29134310D02*
X27393900Y28422600D01*
X26936190Y28422600D02*
X26936190Y29490420D01*
X26936190Y29490420D02*
X26224480Y28422600D01*
X26224480Y28422600D02*
X26224480Y29490420D01*
X25766780Y29490420D02*
X25766780Y28422600D01*
X25766780Y28422600D02*
X25055070Y28422600D01*
X25410920Y28956510D02*
X25766780Y28956510D01*
X25766780Y29490420D02*
X25055070Y29490420D01*
X25182070Y30327600D02*
X24648160Y30327600D01*
X24648160Y30327600D02*
X24470360Y30505650D01*
X24470360Y30505650D02*
X24470360Y31217360D01*
X24470360Y31217360D02*
X24648160Y31395420D01*
X24648160Y31395420D02*
X25182070Y31395420D01*
X25182070Y31395420D02*
X25182070Y30327600D01*
X25639780Y30327600D02*
X25639780Y31395420D01*
X26351480Y31395420D02*
X25639780Y30327600D01*
X26351480Y30327600D02*
X26351480Y31395420D01*
X26809190Y31395420D02*
X26809190Y30505650D01*
X26809190Y30505650D02*
X26986990Y30327600D01*
X26986990Y30327600D02*
X27342850Y30327600D01*
X27342850Y30327600D02*
X27520900Y30505650D01*
X27520900Y30505650D02*
X27520900Y31395420D01*
X29732480Y32232600D02*
X29732480Y33300420D01*
X30444440Y33300420D02*
X29732480Y32232600D01*
X30444440Y32232600D02*
X30444440Y33300420D01*
X30901890Y33122360D02*
X30901890Y32410650D01*
X30901890Y32410650D02*
X31079950Y32232600D01*
X31079950Y32232600D02*
X31435800Y32232600D01*
X31435800Y32232600D02*
X31613860Y32410650D01*
X31613860Y32410650D02*
X31613860Y33122360D01*
X31613860Y33122360D02*
X31435800Y33300420D01*
X31435800Y33300420D02*
X31079950Y33300420D01*
X31079950Y33300420D02*
X30901890Y33122360D01*
X32071310Y33122360D02*
X32249360Y33300420D01*
X32249360Y33300420D02*
X32605220Y33300420D01*
X32605220Y33300420D02*
X32783270Y33122360D01*
X32783270Y33122360D02*
X32783270Y32410650D01*
X32783270Y32410650D02*
X32605220Y32232600D01*
X32605220Y32232600D02*
X32249360Y32232600D01*
X32249360Y32232600D02*
X32071310Y32410650D01*
X31029150Y31217360D02*
X31029150Y30505650D01*
X31029150Y30505650D02*
X30851090Y30327600D01*
X30851090Y30327600D02*
X30495240Y30327600D01*
X30495240Y30327600D02*
X30317190Y30505650D01*
X30317190Y30505650D02*
X30317190Y30861510D01*
X30317190Y30861510D02*
X30673290Y30861510D01*
X31029150Y31217360D02*
X30851090Y31395420D01*
X30851090Y31395420D02*
X30495240Y31395420D01*
X30495240Y31395420D02*
X30317190Y31217360D01*
X30444440Y29490420D02*
X29910530Y29490420D01*
X29910530Y29490420D02*
X29732480Y29312360D01*
X29732480Y29312360D02*
X29732480Y28956510D01*
X29732480Y28956510D02*
X29910530Y28778450D01*
X29910530Y28778450D02*
X30444440Y28778450D01*
X30444440Y28422600D02*
X30444440Y29490420D01*
X28105610Y28956510D02*
X27393900Y28956510D01*
X24600920Y17796760D02*
X24422860Y17440910D01*
X24422860Y17440910D02*
X24067010Y17085060D01*
X24067010Y17085060D02*
X24067010Y17618710D01*
X24067010Y17618710D02*
X23888950Y17796760D01*
X23888950Y17796760D02*
X23711150Y17796760D01*
X23711150Y17796760D02*
X23533100Y17618710D01*
X23533100Y17618710D02*
X23533100Y17262860D01*
X23533100Y17262860D02*
X23711150Y17085060D01*
X23711150Y17085060D02*
X24067010Y17085060D01*
X24244810Y16627350D02*
X24067010Y16449550D01*
X24067010Y16449550D02*
X23888950Y16627350D01*
X23888950Y16627350D02*
X23711150Y16627350D01*
X23711150Y16627350D02*
X23533100Y16449550D01*
X23533100Y16449550D02*
X23533100Y16093440D01*
X23533100Y16093440D02*
X23711150Y15915640D01*
X23711150Y15457930D02*
X23533100Y15280130D01*
X23533100Y15280130D02*
X23533100Y14924020D01*
X23533100Y14924020D02*
X23711150Y14746220D01*
X24067010Y14746220D02*
X24244810Y15102080D01*
X24244810Y15102080D02*
X24244810Y15280130D01*
X24244810Y15280130D02*
X24067010Y15457930D01*
X24067010Y15457930D02*
X23711150Y15457930D01*
X24067010Y14746220D02*
X24600920Y14746220D01*
X24600920Y14746220D02*
X24600920Y15457930D01*
X24422860Y15915640D02*
X24600920Y16093440D01*
X24600920Y16093440D02*
X24600920Y16449550D01*
X24600920Y16449550D02*
X24422860Y16627350D01*
X24422860Y16627350D02*
X24244810Y16627350D01*
X24067010Y16449550D02*
X24067010Y16271490D01*
X24244810Y14288520D02*
X24422860Y14288520D01*
X24422860Y14288520D02*
X24600920Y14110720D01*
X24600920Y14110720D02*
X24600920Y13754860D01*
X24600920Y13754860D02*
X24422860Y13576810D01*
X24422860Y13119100D02*
X23711150Y13119100D01*
X23711150Y13119100D02*
X23533100Y12941300D01*
X23533100Y12941300D02*
X23533100Y12585450D01*
X23533100Y12585450D02*
X23711150Y12407390D01*
X23711150Y12407390D02*
X24422860Y12407390D01*
X24422860Y12407390D02*
X24600920Y12585450D01*
X24600920Y12585450D02*
X24600920Y12941300D01*
X24600920Y12941300D02*
X24422860Y13119100D01*
X23533100Y13576810D02*
X24244810Y14288520D01*
X23533100Y14288520D02*
X23533100Y13576810D01*
X23711150Y11949680D02*
X23533100Y11771880D01*
X23533100Y11771880D02*
X23533100Y11416030D01*
X23533100Y11416030D02*
X23711150Y11237980D01*
X23711150Y11237980D02*
X24422860Y11237980D01*
X24422860Y11237980D02*
X24600920Y11416030D01*
X24600920Y11416030D02*
X24600920Y11771880D01*
X24600920Y11771880D02*
X24422860Y11949680D01*
X24422860Y10780520D02*
X24600920Y10780520D01*
X24422860Y10780520D02*
X24067010Y10424410D01*
X24067010Y10424410D02*
X23533100Y10424410D01*
X24067010Y10424410D02*
X24422860Y10068560D01*
X24422860Y10068560D02*
X24600920Y10068560D01*
X24600920Y9611110D02*
X24600920Y8899140D01*
X24600920Y8899140D02*
X23533100Y8899140D01*
X23533100Y8899140D02*
X23533100Y9611110D01*
X24067010Y9255000D02*
X24067010Y8899140D01*
X24067010Y8441690D02*
X24067010Y7729730D01*
X23533100Y7729730D02*
X24600920Y7729730D01*
X24600920Y8441690D02*
X23533100Y8441690D01*
X61379100Y8279890D02*
X61734950Y7924040D01*
X61734950Y8102090D02*
X61734950Y7568180D01*
X61379100Y7568180D02*
X62446920Y7568180D01*
X62446920Y7568180D02*
X62446920Y8102090D01*
X62446920Y8102090D02*
X62268860Y8279890D01*
X62268860Y8279890D02*
X61913010Y8279890D01*
X61913010Y8279890D02*
X61734950Y8102090D01*
X61379100Y8737600D02*
X62446920Y8737600D01*
X62446920Y8737600D02*
X61379100Y9449310D01*
X61379100Y9449310D02*
X62446920Y9449310D01*
X62446920Y9907020D02*
X62446920Y10440920D01*
X62446920Y10440920D02*
X62268860Y10618720D01*
X62268860Y10618720D02*
X61557150Y10618720D01*
X61557150Y10618720D02*
X61379100Y10440920D01*
X61379100Y10440920D02*
X61379100Y9907020D01*
X61379100Y9907020D02*
X62446920Y9907020D01*
X63689480Y9728450D02*
X63689480Y10440420D01*
X64401190Y10440420D02*
X64401190Y9728450D01*
X64401190Y9728450D02*
X64045340Y9372600D01*
X64045340Y9372600D02*
X63689480Y9728450D01*
X64858900Y9550650D02*
X65036700Y9372600D01*
X65036700Y9372600D02*
X65392550Y9372600D01*
X65392550Y9372600D02*
X65570610Y9550650D01*
X65570610Y9906510D02*
X65214750Y10084310D01*
X65214750Y10084310D02*
X65036700Y10084310D01*
X65036700Y10084310D02*
X64858900Y9906510D01*
X64858900Y9906510D02*
X64858900Y9550650D01*
X65570610Y9906510D02*
X65570610Y10440420D01*
X65570610Y10440420D02*
X64858900Y10440420D01*
X66028320Y9906510D02*
X66740020Y9906510D01*
X66384170Y10262360D02*
X66384170Y9550650D01*
X62446920Y6932680D02*
X62446920Y6576820D01*
X62446920Y6576820D02*
X62268860Y6398770D01*
X62268860Y6398770D02*
X61557150Y6398770D01*
X61557150Y6398770D02*
X61379100Y6576820D01*
X61379100Y6576820D02*
X61379100Y6932680D01*
X61379100Y6932680D02*
X61557150Y7110730D01*
X61557150Y7110730D02*
X61913010Y7110730D01*
X61913010Y7110730D02*
X61913010Y6754620D01*
X62268860Y7110730D02*
X62446920Y6932680D01*
X64045340Y23977600D02*
X63689480Y24333450D01*
X63689480Y24333450D02*
X63689480Y25045420D01*
X64401190Y25045420D02*
X64401190Y24333450D01*
X64401190Y24333450D02*
X64045340Y23977600D01*
X64858900Y24155650D02*
X65036700Y23977600D01*
X65036700Y23977600D02*
X65392550Y23977600D01*
X65392550Y23977600D02*
X65570610Y24155650D01*
X65570610Y24511510D02*
X65214750Y24689310D01*
X65214750Y24689310D02*
X65036700Y24689310D01*
X65036700Y24689310D02*
X64858900Y24511510D01*
X64858900Y24511510D02*
X64858900Y24155650D01*
X65570610Y24511510D02*
X65570610Y25045420D01*
X65570610Y25045420D02*
X64858900Y25045420D01*
X66028320Y24511510D02*
X66740020Y24511510D01*
X66384170Y24867360D02*
X66384170Y24155650D01*
X69303900Y24333450D02*
X69837550Y24333450D01*
X69837550Y24333450D02*
X70015610Y24155650D01*
X70015610Y24155650D02*
X69837550Y23977600D01*
X69837550Y23977600D02*
X69303900Y23977600D01*
X69303900Y23977600D02*
X69303900Y24511510D01*
X69303900Y24511510D02*
X69481700Y24689310D01*
X69481700Y24689310D02*
X69837550Y24689310D01*
X71843900Y24511510D02*
X72021700Y24689310D01*
X72021700Y24689310D02*
X72555610Y24689310D01*
X72555610Y25045420D02*
X72555610Y23977600D01*
X72555610Y23977600D02*
X72021700Y23977600D01*
X72021700Y23977600D02*
X71843900Y24155650D01*
X71843900Y24155650D02*
X71843900Y24511510D01*
X74383900Y24689310D02*
X74917550Y24689310D01*
X74917550Y24689310D02*
X75095610Y24511510D01*
X75095610Y24511510D02*
X75095610Y24155650D01*
X75095610Y24155650D02*
X74917550Y23977600D01*
X74917550Y23977600D02*
X74383900Y23977600D01*
X76923900Y23977600D02*
X77457550Y23977600D01*
X77457550Y23977600D02*
X77635610Y24155650D01*
X77635610Y24155650D02*
X77635610Y24511510D01*
X77635610Y24511510D02*
X77457550Y24689310D01*
X77457550Y24689310D02*
X76923900Y24689310D01*
X76923900Y25045420D02*
X76923900Y23977600D01*
X79463900Y24333450D02*
X80175610Y24333450D01*
X80175610Y24155650D02*
X80175610Y24511510D01*
X80175610Y24511510D02*
X79997550Y24689310D01*
X79997550Y24689310D02*
X79641700Y24689310D01*
X79641700Y24689310D02*
X79463900Y24511510D01*
X79463900Y24511510D02*
X79463900Y24333450D01*
X79641700Y23977600D02*
X79997550Y23977600D01*
X79997550Y23977600D02*
X80175610Y24155650D01*
X82164680Y24511510D02*
X82520790Y24511510D01*
X82342740Y24867360D02*
X82342740Y23977600D01*
X82342740Y24867360D02*
X82164680Y25045420D01*
X84543900Y24689310D02*
X84543900Y23799550D01*
X84543900Y23799550D02*
X84721700Y23621750D01*
X84721700Y23621750D02*
X84899750Y23621750D01*
X85077550Y23977600D02*
X84543900Y23977600D01*
X85077550Y23977600D02*
X85255610Y24155650D01*
X85255610Y24155650D02*
X85255610Y24511510D01*
X85255610Y24511510D02*
X85077550Y24689310D01*
X85077550Y24689310D02*
X84543900Y24689310D01*
X84721700Y27152600D02*
X84543900Y27330650D01*
X84543900Y27330650D02*
X84543900Y27686510D01*
X84543900Y27686510D02*
X84899750Y27686510D01*
X85255610Y28042360D02*
X85255610Y27330650D01*
X85255610Y27330650D02*
X85077550Y27152600D01*
X85077550Y27152600D02*
X84721700Y27152600D01*
X84543900Y28042360D02*
X84721700Y28220420D01*
X84721700Y28220420D02*
X85077550Y28220420D01*
X85077550Y28220420D02*
X85255610Y28042360D01*
X82715610Y28220420D02*
X82715610Y27152600D01*
X82715610Y27686510D02*
X82359750Y27686510D01*
X82715610Y28220420D02*
X82003900Y28220420D01*
X80175610Y28220420D02*
X80175610Y27152600D01*
X80175610Y27152600D02*
X79463900Y27152600D01*
X79819750Y27686510D02*
X80175610Y27686510D01*
X80175610Y28220420D02*
X79463900Y28220420D01*
X77635610Y28220420D02*
X77635610Y27152600D01*
X77635610Y27152600D02*
X77101700Y27152600D01*
X77101700Y27152600D02*
X76923900Y27330650D01*
X76923900Y27330650D02*
X76923900Y28042360D01*
X76923900Y28042360D02*
X77101700Y28220420D01*
X77101700Y28220420D02*
X77635610Y28220420D01*
X75095610Y28042360D02*
X75095610Y27330650D01*
X75095610Y27330650D02*
X74917550Y27152600D01*
X74917550Y27152600D02*
X74561700Y27152600D01*
X74561700Y27152600D02*
X74383900Y27330650D01*
X74383900Y28042360D02*
X74561700Y28220420D01*
X74561700Y28220420D02*
X74917550Y28220420D01*
X74917550Y28220420D02*
X75095610Y28042360D01*
X72555610Y28220420D02*
X72555610Y27152600D01*
X72555610Y27152600D02*
X72021700Y27152600D01*
X72021700Y27152600D02*
X71843900Y27330650D01*
X71843900Y27330650D02*
X71843900Y27508450D01*
X71843900Y27508450D02*
X72021700Y27686510D01*
X72021700Y27686510D02*
X72555610Y27686510D01*
X72555610Y28220420D02*
X72021700Y28220420D01*
X72021700Y28220420D02*
X71843900Y28042360D01*
X71843900Y28042360D02*
X71843900Y27864310D01*
X71843900Y27864310D02*
X72021700Y27686510D01*
X70015610Y27686510D02*
X69303900Y27686510D01*
X69303900Y27864310D02*
X69303900Y27152600D01*
X70015610Y27152600D02*
X70015610Y27864310D01*
X70015610Y27864310D02*
X69659750Y28220420D01*
X69659750Y28220420D02*
X69303900Y27864310D01*
X66740020Y27686510D02*
X66028320Y27686510D01*
X65570610Y27686510D02*
X65214750Y27864310D01*
X65214750Y27864310D02*
X65036700Y27864310D01*
X65036700Y27864310D02*
X64858900Y27686510D01*
X64858900Y27686510D02*
X64858900Y27330650D01*
X64858900Y27330650D02*
X65036700Y27152600D01*
X65036700Y27152600D02*
X65392550Y27152600D01*
X65392550Y27152600D02*
X65570610Y27330650D01*
X65570610Y27686510D02*
X65570610Y28220420D01*
X65570610Y28220420D02*
X64858900Y28220420D01*
X64401190Y28220420D02*
X64401190Y27508450D01*
X64401190Y27508450D02*
X64045340Y27152600D01*
X64045340Y27152600D02*
X63689480Y27508450D01*
X63689480Y27508450D02*
X63689480Y28220420D01*
X62446920Y28220920D02*
X62446920Y27687020D01*
X62446920Y27687020D02*
X61379100Y27687020D01*
X61379100Y27687020D02*
X61379100Y28220920D01*
X61379100Y28220920D02*
X61557150Y28398720D01*
X61557150Y28398720D02*
X62268860Y28398720D01*
X62268860Y28398720D02*
X62446920Y28220920D01*
X62446920Y27229310D02*
X61379100Y27229310D01*
X61379100Y27229310D02*
X62446920Y26517600D01*
X62446920Y26517600D02*
X61379100Y26517600D01*
X61379100Y26059890D02*
X61734950Y25704040D01*
X61734950Y25882090D02*
X61734950Y25348180D01*
X61379100Y25348180D02*
X62446920Y25348180D01*
X62446920Y25348180D02*
X62446920Y25882090D01*
X62446920Y25882090D02*
X62268860Y26059890D01*
X62268860Y26059890D02*
X61913010Y26059890D01*
X61913010Y26059890D02*
X61734950Y25882090D01*
X61557150Y24890730D02*
X61913010Y24890730D01*
X61913010Y24890730D02*
X61913010Y24534620D01*
X62268860Y24178770D02*
X61557150Y24178770D01*
X61557150Y24178770D02*
X61379100Y24356820D01*
X61379100Y24356820D02*
X61379100Y24712680D01*
X61379100Y24712680D02*
X61557150Y24890730D01*
X62268860Y24890730D02*
X62446920Y24712680D01*
X62446920Y24712680D02*
X62446920Y24356820D01*
X62446920Y24356820D02*
X62268860Y24178770D01*
X64045340Y41440100D02*
X63689480Y41795950D01*
X63689480Y41795950D02*
X63689480Y42507920D01*
X64401190Y42507920D02*
X64401190Y41795950D01*
X64401190Y41795950D02*
X64045340Y41440100D01*
X64858900Y41618150D02*
X65036700Y41440100D01*
X65036700Y41440100D02*
X65392550Y41440100D01*
X65392550Y41440100D02*
X65570610Y41618150D01*
X65570610Y41974010D02*
X65214750Y42151810D01*
X65214750Y42151810D02*
X65036700Y42151810D01*
X65036700Y42151810D02*
X64858900Y41974010D01*
X64858900Y41974010D02*
X64858900Y41618150D01*
X65570610Y41974010D02*
X65570610Y42507920D01*
X65570610Y42507920D02*
X64858900Y42507920D01*
X66028320Y41974010D02*
X66740020Y41974010D01*
X62446920Y41819320D02*
X62268860Y41641270D01*
X62268860Y41641270D02*
X61557150Y41641270D01*
X61557150Y41641270D02*
X61379100Y41819320D01*
X61379100Y41819320D02*
X61379100Y42175180D01*
X61379100Y42175180D02*
X61557150Y42353230D01*
X61557150Y42353230D02*
X61913010Y42353230D01*
X61913010Y42353230D02*
X61913010Y41997120D01*
X62268860Y42353230D02*
X62446920Y42175180D01*
X62446920Y42175180D02*
X62446920Y41819320D01*
X62446920Y42810680D02*
X61379100Y42810680D01*
X61734950Y42810680D02*
X61734950Y43344590D01*
X61734950Y43344590D02*
X61913010Y43522390D01*
X61913010Y43522390D02*
X62268860Y43522390D01*
X62268860Y43522390D02*
X62446920Y43344590D01*
X62446920Y43344590D02*
X62446920Y42810680D01*
X61734950Y43166540D02*
X61379100Y43522390D01*
X61379100Y43980100D02*
X62446920Y43980100D01*
X62446920Y43980100D02*
X61379100Y44691810D01*
X61379100Y44691810D02*
X62446920Y44691810D01*
X62446920Y45149520D02*
X61379100Y45149520D01*
X61379100Y45149520D02*
X61379100Y45683420D01*
X61379100Y45683420D02*
X61557150Y45861220D01*
X61557150Y45861220D02*
X62268860Y45861220D01*
X62268860Y45861220D02*
X62446920Y45683420D01*
X62446920Y45683420D02*
X62446920Y45149520D01*
D13*
X17843500Y45656500D02*
X17846800Y45918370D01*
X17846800Y45918370D02*
X17856450Y46179990D01*
X17856450Y46179990D02*
X17872460Y46441360D01*
X17872460Y46441360D02*
X17894810Y46702220D01*
X17894810Y46702220D02*
X17923760Y46962310D01*
X17923760Y46962310D02*
X17959070Y47221900D01*
X17959070Y47221900D02*
X18000470Y47480220D01*
X18000470Y47480220D02*
X18048480Y47737780D01*
X18048480Y47737780D02*
X18102830Y47993810D01*
X18102830Y47993810D02*
X18163290Y48248570D01*
X18163290Y48248570D02*
X18229830Y48501810D01*
X18229830Y48501810D02*
X18302990Y48753270D01*
X18302990Y48753270D02*
X18381980Y49002950D01*
X18381980Y49002950D02*
X18467070Y49250350D01*
X18467070Y49250350D02*
X18558260Y49495960D01*
X18558260Y49495960D02*
X18655540Y49739040D01*
X18655540Y49739040D02*
X18758660Y49979580D01*
X18758660Y49979580D02*
X18867630Y50217580D01*
X18867630Y50217580D02*
X18982690Y50453040D01*
X18982690Y50453040D02*
X19103090Y50685450D01*
X19103090Y50685450D02*
X19229320Y50914810D01*
X19229320Y50914810D02*
X19361150Y51140870D01*
X19361150Y51140870D02*
X19498560Y51363880D01*
X19498560Y51363880D02*
X19641310Y51583340D01*
X19641310Y51583340D02*
X19789390Y51799240D01*
X19789390Y51799240D02*
X19942810Y52011330D01*
X19942810Y52011330D02*
X20101310Y52219860D01*
X20101310Y52219860D02*
X20265140Y52424330D01*
X20265140Y52424330D02*
X20433540Y52624480D01*
X20433540Y52624480D02*
X20607020Y52820570D01*
X20607020Y52820570D02*
X20785330Y53012590D01*
X20785330Y53012590D02*
X20968210Y53199790D01*
X20968210Y53199790D02*
X21155410Y53382670D01*
X21155410Y53382670D02*
X21347430Y53560980D01*
X21347430Y53560980D02*
X21543520Y53734460D01*
X21543520Y53734460D02*
X21743670Y53902860D01*
X21743670Y53902860D02*
X21948140Y54066690D01*
X21948140Y54066690D02*
X22156670Y54225190D01*
X22156670Y54225190D02*
X22368760Y54378610D01*
X22368760Y54378610D02*
X22584660Y54526690D01*
X22584660Y54526690D02*
X22804120Y54669440D01*
X22804120Y54669440D02*
X23027130Y54806850D01*
X23027130Y54806850D02*
X23253190Y54938680D01*
X23253190Y54938680D02*
X23482550Y55064910D01*
X23482550Y55064910D02*
X23714960Y55185310D01*
X23714960Y55185310D02*
X23950420Y55300370D01*
X23950420Y55300370D02*
X24188420Y55409340D01*
X24188420Y55409340D02*
X24428960Y55512460D01*
X24428960Y55512460D02*
X24672040Y55609740D01*
X24672040Y55609740D02*
X24917650Y55700930D01*
X24917650Y55700930D02*
X25165050Y55786020D01*
X25165050Y55786020D02*
X25414730Y55865010D01*
X25414730Y55865010D02*
X25666190Y55938170D01*
X25666190Y55938170D02*
X25919430Y56004710D01*
X25919430Y56004710D02*
X26174190Y56065170D01*
X26174190Y56065170D02*
X26430220Y56119520D01*
X26430220Y56119520D02*
X26687780Y56167530D01*
X26687780Y56167530D02*
X26946100Y56208930D01*
X26946100Y56208930D02*
X27205690Y56244240D01*
X27205690Y56244240D02*
X27465780Y56273190D01*
X27465780Y56273190D02*
X27726640Y56295540D01*
X27726640Y56295540D02*
X27988010Y56311550D01*
X27988010Y56311550D02*
X28249630Y56321200D01*
X28249630Y56321200D02*
X28511500Y56324500D01*
X28511500Y56324500D02*
X28773370Y56321200D01*
X28773370Y56321200D02*
X29034990Y56311550D01*
X29034990Y56311550D02*
X29296360Y56295540D01*
X29296360Y56295540D02*
X29557220Y56273190D01*
X29557220Y56273190D02*
X29817310Y56244240D01*
X29817310Y56244240D02*
X30076900Y56208930D01*
X30076900Y56208930D02*
X30335220Y56167530D01*
X30335220Y56167530D02*
X30592780Y56119520D01*
X30592780Y56119520D02*
X30848810Y56065170D01*
X30848810Y56065170D02*
X31103570Y56004710D01*
X31103570Y56004710D02*
X31356810Y55938170D01*
X31356810Y55938170D02*
X31608270Y55865010D01*
X31608270Y55865010D02*
X31857950Y55786020D01*
X31857950Y55786020D02*
X32105350Y55700930D01*
X32105350Y55700930D02*
X32350960Y55609740D01*
X32350960Y55609740D02*
X32594040Y55512460D01*
X32594040Y55512460D02*
X32834580Y55409340D01*
X32834580Y55409340D02*
X33072580Y55300370D01*
X33072580Y55300370D02*
X33308040Y55185310D01*
X33308040Y55185310D02*
X33540450Y55064910D01*
X33540450Y55064910D02*
X33769810Y54938680D01*
X33769810Y54938680D02*
X33995870Y54806850D01*
X33995870Y54806850D02*
X34218880Y54669440D01*
X34218880Y54669440D02*
X34438340Y54526690D01*
X34438340Y54526690D02*
X34654240Y54378610D01*
X34654240Y54378610D02*
X34866330Y54225190D01*
X34866330Y54225190D02*
X35074860Y54066690D01*
X35074860Y54066690D02*
X35279330Y53902860D01*
X35279330Y53902860D02*
X35479480Y53734460D01*
X35479480Y53734460D02*
X35675570Y53560980D01*
X35675570Y53560980D02*
X35867590Y53382670D01*
X35867590Y53382670D02*
X36054790Y53199790D01*
X36054790Y53199790D02*
X36237670Y53012590D01*
X36237670Y53012590D02*
X36415980Y52820570D01*
X36415980Y52820570D02*
X36589460Y52624480D01*
X36589460Y52624480D02*
X36757860Y52424330D01*
X36757860Y52424330D02*
X36921690Y52219860D01*
X36921690Y52219860D02*
X37080190Y52011330D01*
X37080190Y52011330D02*
X37233610Y51799240D01*
X37233610Y51799240D02*
X37381690Y51583340D01*
X37381690Y51583340D02*
X37524440Y51363880D01*
X37524440Y51363880D02*
X37661850Y51140870D01*
X37661850Y51140870D02*
X37793680Y50914810D01*
X37793680Y50914810D02*
X37919910Y50685450D01*
X37919910Y50685450D02*
X38040310Y50453040D01*
X38040310Y50453040D02*
X38155370Y50217580D01*
X38155370Y50217580D02*
X38264340Y49979580D01*
X38264340Y49979580D02*
X38367460Y49739040D01*
X38367460Y49739040D02*
X38464740Y49495960D01*
X38464740Y49495960D02*
X38555930Y49250350D01*
X38555930Y49250350D02*
X38641020Y49002950D01*
X38641020Y49002950D02*
X38720010Y48753270D01*
X38720010Y48753270D02*
X38793170Y48501810D01*
X38793170Y48501810D02*
X38859710Y48248570D01*
X38859710Y48248570D02*
X38920170Y47993810D01*
X38920170Y47993810D02*
X38974520Y47737780D01*
X38974520Y47737780D02*
X39022530Y47480220D01*
X39022530Y47480220D02*
X39063930Y47221900D01*
X39063930Y47221900D02*
X39099240Y46962310D01*
X39099240Y46962310D02*
X39128190Y46702220D01*
X39128190Y46702220D02*
X39150540Y46441360D01*
X39150540Y46441360D02*
X39166550Y46179990D01*
X39166550Y46179990D02*
X39176200Y45918370D01*
X39176200Y45918370D02*
X39179500Y45656500D01*
X39179500Y45656500D02*
X39176200Y45394630D01*
X39176200Y45394630D02*
X39166550Y45133010D01*
X39166550Y45133010D02*
X39150540Y44871640D01*
X39150540Y44871640D02*
X39128190Y44610780D01*
X39128190Y44610780D02*
X39099240Y44350690D01*
X39099240Y44350690D02*
X39063930Y44091100D01*
X39063930Y44091100D02*
X39022530Y43832780D01*
X39022530Y43832780D02*
X38974520Y43575220D01*
X38974520Y43575220D02*
X38920170Y43319190D01*
X38920170Y43319190D02*
X38859710Y43064430D01*
X38859710Y43064430D02*
X38793170Y42811190D01*
X38793170Y42811190D02*
X38720010Y42559730D01*
X38720010Y42559730D02*
X38641020Y42310050D01*
X38641020Y42310050D02*
X38555930Y42062650D01*
X38555930Y42062650D02*
X38464740Y41817040D01*
X38464740Y41817040D02*
X38367460Y41573960D01*
X38367460Y41573960D02*
X38264340Y41333420D01*
X38264340Y41333420D02*
X38155370Y41095420D01*
X38155370Y41095420D02*
X38040310Y40859960D01*
X38040310Y40859960D02*
X37919910Y40627550D01*
X37919910Y40627550D02*
X37793680Y40398190D01*
X37793680Y40398190D02*
X37661850Y40172130D01*
X37661850Y40172130D02*
X37524440Y39949120D01*
X37524440Y39949120D02*
X37381690Y39729660D01*
X37381690Y39729660D02*
X37233610Y39513760D01*
X37233610Y39513760D02*
X37080190Y39301670D01*
X37080190Y39301670D02*
X36921690Y39093140D01*
X36921690Y39093140D02*
X36757860Y38888670D01*
X36757860Y38888670D02*
X36589460Y38688520D01*
X36589460Y38688520D02*
X36415980Y38492430D01*
X36415980Y38492430D02*
X36237670Y38300410D01*
X36237670Y38300410D02*
X36054790Y38113210D01*
X36054790Y38113210D02*
X35867590Y37930330D01*
X35867590Y37930330D02*
X35675570Y37752020D01*
X35675570Y37752020D02*
X35479480Y37578540D01*
X35479480Y37578540D02*
X35279330Y37410140D01*
X35279330Y37410140D02*
X35074860Y37246310D01*
X35074860Y37246310D02*
X34866330Y37087810D01*
X34866330Y37087810D02*
X34654240Y36934390D01*
X34654240Y36934390D02*
X34438340Y36786310D01*
X34438340Y36786310D02*
X34218880Y36643560D01*
X34218880Y36643560D02*
X33995870Y36506150D01*
X33995870Y36506150D02*
X33769810Y36374320D01*
X33769810Y36374320D02*
X33540450Y36248090D01*
X33540450Y36248090D02*
X33308040Y36127690D01*
X33308040Y36127690D02*
X33072580Y36012630D01*
X33072580Y36012630D02*
X32834580Y35903660D01*
X32834580Y35903660D02*
X32594040Y35800540D01*
X32594040Y35800540D02*
X32350960Y35703260D01*
X32350960Y35703260D02*
X32105350Y35612070D01*
X32105350Y35612070D02*
X31857950Y35526980D01*
X31857950Y35526980D02*
X31608270Y35447990D01*
X31608270Y35447990D02*
X31356810Y35374830D01*
X31356810Y35374830D02*
X31103570Y35308290D01*
X31103570Y35308290D02*
X30848810Y35247830D01*
X30848810Y35247830D02*
X30592780Y35193480D01*
X30592780Y35193480D02*
X30335220Y35145470D01*
X30335220Y35145470D02*
X30076900Y35104070D01*
X30076900Y35104070D02*
X29817310Y35068760D01*
X29817310Y35068760D02*
X29557220Y35039810D01*
X29557220Y35039810D02*
X29296360Y35017460D01*
X29296360Y35017460D02*
X29034990Y35001450D01*
X29034990Y35001450D02*
X28773370Y34991800D01*
X28773370Y34991800D02*
X28511500Y34988500D01*
X28511500Y34988500D02*
X28249630Y34991800D01*
X28249630Y34991800D02*
X27988010Y35001450D01*
X27988010Y35001450D02*
X27726640Y35017460D01*
X27726640Y35017460D02*
X27465780Y35039810D01*
X27465780Y35039810D02*
X27205690Y35068760D01*
X27205690Y35068760D02*
X26946100Y35104070D01*
X26946100Y35104070D02*
X26687780Y35145470D01*
X26687780Y35145470D02*
X26430220Y35193480D01*
X26430220Y35193480D02*
X26174190Y35247830D01*
X26174190Y35247830D02*
X25919430Y35308290D01*
X25919430Y35308290D02*
X25666190Y35374830D01*
X25666190Y35374830D02*
X25414730Y35447990D01*
X25414730Y35447990D02*
X25165050Y35526980D01*
X25165050Y35526980D02*
X24917650Y35612070D01*
X24917650Y35612070D02*
X24672040Y35703260D01*
X24672040Y35703260D02*
X24428960Y35800540D01*
X24428960Y35800540D02*
X24188420Y35903660D01*
X24188420Y35903660D02*
X23950420Y36012630D01*
X23950420Y36012630D02*
X23714960Y36127690D01*
X23714960Y36127690D02*
X23482550Y36248090D01*
X23482550Y36248090D02*
X23253190Y36374320D01*
X23253190Y36374320D02*
X23027130Y36506150D01*
X23027130Y36506150D02*
X22804120Y36643560D01*
X22804120Y36643560D02*
X22584660Y36786310D01*
X22584660Y36786310D02*
X22368760Y36934390D01*
X22368760Y36934390D02*
X22156670Y37087810D01*
X22156670Y37087810D02*
X21948140Y37246310D01*
X21948140Y37246310D02*
X21743670Y37410140D01*
X21743670Y37410140D02*
X21543520Y37578540D01*
X21543520Y37578540D02*
X21347430Y37752020D01*
X21347430Y37752020D02*
X21155410Y37930330D01*
X21155410Y37930330D02*
X20968210Y38113210D01*
X20968210Y38113210D02*
X20785330Y38300410D01*
X20785330Y38300410D02*
X20607020Y38492430D01*
X20607020Y38492430D02*
X20433540Y38688520D01*
X20433540Y38688520D02*
X20265140Y38888670D01*
X20265140Y38888670D02*
X20101310Y39093140D01*
X20101310Y39093140D02*
X19942810Y39301670D01*
X19942810Y39301670D02*
X19789390Y39513760D01*
X19789390Y39513760D02*
X19641310Y39729660D01*
X19641310Y39729660D02*
X19498560Y39949120D01*
X19498560Y39949120D02*
X19361150Y40172130D01*
X19361150Y40172130D02*
X19229320Y40398190D01*
X19229320Y40398190D02*
X19103090Y40627550D01*
X19103090Y40627550D02*
X18982690Y40859960D01*
X18982690Y40859960D02*
X18867630Y41095420D01*
X18867630Y41095420D02*
X18758660Y41333420D01*
X18758660Y41333420D02*
X18655540Y41573960D01*
X18655540Y41573960D02*
X18558260Y41817040D01*
X18558260Y41817040D02*
X18467070Y42062650D01*
X18467070Y42062650D02*
X18381980Y42310050D01*
X18381980Y42310050D02*
X18302990Y42559730D01*
X18302990Y42559730D02*
X18229830Y42811190D01*
X18229830Y42811190D02*
X18163290Y43064430D01*
X18163290Y43064430D02*
X18102830Y43319190D01*
X18102830Y43319190D02*
X18048480Y43575220D01*
X18048480Y43575220D02*
X18000470Y43832780D01*
X18000470Y43832780D02*
X17959070Y44091100D01*
X17959070Y44091100D02*
X17923760Y44350690D01*
X17923760Y44350690D02*
X17894810Y44610780D01*
X17894810Y44610780D02*
X17872460Y44871640D01*
X17872460Y44871640D02*
X17856450Y45133010D01*
X17856450Y45133010D02*
X17846800Y45394630D01*
X17846800Y45394630D02*
X17843500Y45656500D01*
X17843500Y12890500D02*
X17846800Y13152370D01*
X17846800Y13152370D02*
X17856450Y13413990D01*
X17856450Y13413990D02*
X17872460Y13675360D01*
X17872460Y13675360D02*
X17894810Y13936220D01*
X17894810Y13936220D02*
X17923760Y14196310D01*
X17923760Y14196310D02*
X17959070Y14455900D01*
X17959070Y14455900D02*
X18000470Y14714220D01*
X18000470Y14714220D02*
X18048480Y14971780D01*
X18048480Y14971780D02*
X18102830Y15227810D01*
X18102830Y15227810D02*
X18163290Y15482570D01*
X18163290Y15482570D02*
X18229830Y15735810D01*
X18229830Y15735810D02*
X18302990Y15987270D01*
X18302990Y15987270D02*
X18381980Y16236950D01*
X18381980Y16236950D02*
X18467070Y16484350D01*
X18467070Y16484350D02*
X18558260Y16729960D01*
X18558260Y16729960D02*
X18655540Y16973040D01*
X18655540Y16973040D02*
X18758660Y17213580D01*
X18758660Y17213580D02*
X18867630Y17451580D01*
X18867630Y17451580D02*
X18982690Y17687040D01*
X18982690Y17687040D02*
X19103090Y17919450D01*
X19103090Y17919450D02*
X19229320Y18148810D01*
X19229320Y18148810D02*
X19361150Y18374870D01*
X19361150Y18374870D02*
X19498560Y18597880D01*
X19498560Y18597880D02*
X19641310Y18817340D01*
X19641310Y18817340D02*
X19789390Y19033240D01*
X19789390Y19033240D02*
X19942810Y19245330D01*
X19942810Y19245330D02*
X20101310Y19453860D01*
X20101310Y19453860D02*
X20265140Y19658330D01*
X20265140Y19658330D02*
X20433540Y19858480D01*
X20433540Y19858480D02*
X20607020Y20054570D01*
X20607020Y20054570D02*
X20785330Y20246590D01*
X20785330Y20246590D02*
X20968210Y20433790D01*
X20968210Y20433790D02*
X21155410Y20616670D01*
X21155410Y20616670D02*
X21347430Y20794980D01*
X21347430Y20794980D02*
X21543520Y20968460D01*
X21543520Y20968460D02*
X21743670Y21136860D01*
X21743670Y21136860D02*
X21948140Y21300690D01*
X21948140Y21300690D02*
X22156670Y21459190D01*
X22156670Y21459190D02*
X22368760Y21612610D01*
X22368760Y21612610D02*
X22584660Y21760690D01*
X22584660Y21760690D02*
X22804120Y21903440D01*
X22804120Y21903440D02*
X23027130Y22040850D01*
X23027130Y22040850D02*
X23253190Y22172680D01*
X23253190Y22172680D02*
X23482550Y22298910D01*
X23482550Y22298910D02*
X23714960Y22419310D01*
X23714960Y22419310D02*
X23950420Y22534370D01*
X23950420Y22534370D02*
X24188420Y22643340D01*
X24188420Y22643340D02*
X24428960Y22746460D01*
X24428960Y22746460D02*
X24672040Y22843740D01*
X24672040Y22843740D02*
X24917650Y22934930D01*
X24917650Y22934930D02*
X25165050Y23020020D01*
X25165050Y23020020D02*
X25414730Y23099010D01*
X25414730Y23099010D02*
X25666190Y23172170D01*
X25666190Y23172170D02*
X25919430Y23238710D01*
X25919430Y23238710D02*
X26174190Y23299170D01*
X26174190Y23299170D02*
X26430220Y23353520D01*
X26430220Y23353520D02*
X26687780Y23401530D01*
X26687780Y23401530D02*
X26946100Y23442930D01*
X26946100Y23442930D02*
X27205690Y23478240D01*
X27205690Y23478240D02*
X27465780Y23507190D01*
X27465780Y23507190D02*
X27726640Y23529540D01*
X27726640Y23529540D02*
X27988010Y23545550D01*
X27988010Y23545550D02*
X28249630Y23555200D01*
X28249630Y23555200D02*
X28511500Y23558500D01*
X28511500Y23558500D02*
X28773370Y23555200D01*
X28773370Y23555200D02*
X29034990Y23545550D01*
X29034990Y23545550D02*
X29296360Y23529540D01*
X29296360Y23529540D02*
X29557220Y23507190D01*
X29557220Y23507190D02*
X29817310Y23478240D01*
X29817310Y23478240D02*
X30076900Y23442930D01*
X30076900Y23442930D02*
X30335220Y23401530D01*
X30335220Y23401530D02*
X30592780Y23353520D01*
X30592780Y23353520D02*
X30848810Y23299170D01*
X30848810Y23299170D02*
X31103570Y23238710D01*
X31103570Y23238710D02*
X31356810Y23172170D01*
X31356810Y23172170D02*
X31608270Y23099010D01*
X31608270Y23099010D02*
X31857950Y23020020D01*
X31857950Y23020020D02*
X32105350Y22934930D01*
X32105350Y22934930D02*
X32350960Y22843740D01*
X32350960Y22843740D02*
X32594040Y22746460D01*
X32594040Y22746460D02*
X32834580Y22643340D01*
X32834580Y22643340D02*
X33072580Y22534370D01*
X33072580Y22534370D02*
X33308040Y22419310D01*
X33308040Y22419310D02*
X33540450Y22298910D01*
X33540450Y22298910D02*
X33769810Y22172680D01*
X33769810Y22172680D02*
X33995870Y22040850D01*
X33995870Y22040850D02*
X34218880Y21903440D01*
X34218880Y21903440D02*
X34438340Y21760690D01*
X34438340Y21760690D02*
X34654240Y21612610D01*
X34654240Y21612610D02*
X34866330Y21459190D01*
X34866330Y21459190D02*
X35074860Y21300690D01*
X35074860Y21300690D02*
X35279330Y21136860D01*
X35279330Y21136860D02*
X35479480Y20968460D01*
X35479480Y20968460D02*
X35675570Y20794980D01*
X35675570Y20794980D02*
X35867590Y20616670D01*
X35867590Y20616670D02*
X36054790Y20433790D01*
X36054790Y20433790D02*
X36237670Y20246590D01*
X36237670Y20246590D02*
X36415980Y20054570D01*
X36415980Y20054570D02*
X36589460Y19858480D01*
X36589460Y19858480D02*
X36757860Y19658330D01*
X36757860Y19658330D02*
X36921690Y19453860D01*
X36921690Y19453860D02*
X37080190Y19245330D01*
X37080190Y19245330D02*
X37233610Y19033240D01*
X37233610Y19033240D02*
X37381690Y18817340D01*
X37381690Y18817340D02*
X37524440Y18597880D01*
X37524440Y18597880D02*
X37661850Y18374870D01*
X37661850Y18374870D02*
X37793680Y18148810D01*
X37793680Y18148810D02*
X37919910Y17919450D01*
X37919910Y17919450D02*
X38040310Y17687040D01*
X38040310Y17687040D02*
X38155370Y17451580D01*
X38155370Y17451580D02*
X38264340Y17213580D01*
X38264340Y17213580D02*
X38367460Y16973040D01*
X38367460Y16973040D02*
X38464740Y16729960D01*
X38464740Y16729960D02*
X38555930Y16484350D01*
X38555930Y16484350D02*
X38641020Y16236950D01*
X38641020Y16236950D02*
X38720010Y15987270D01*
X38720010Y15987270D02*
X38793170Y15735810D01*
X38793170Y15735810D02*
X38859710Y15482570D01*
X38859710Y15482570D02*
X38920170Y15227810D01*
X38920170Y15227810D02*
X38974520Y14971780D01*
X38974520Y14971780D02*
X39022530Y14714220D01*
X39022530Y14714220D02*
X39063930Y14455900D01*
X39063930Y14455900D02*
X39099240Y14196310D01*
X39099240Y14196310D02*
X39128190Y13936220D01*
X39128190Y13936220D02*
X39150540Y13675360D01*
X39150540Y13675360D02*
X39166550Y13413990D01*
X39166550Y13413990D02*
X39176200Y13152370D01*
X39176200Y13152370D02*
X39179500Y12890500D01*
X39179500Y12890500D02*
X39176200Y12628630D01*
X39176200Y12628630D02*
X39166550Y12367010D01*
X39166550Y12367010D02*
X39150540Y12105640D01*
X39150540Y12105640D02*
X39128190Y11844780D01*
X39128190Y11844780D02*
X39099240Y11584690D01*
X39099240Y11584690D02*
X39063930Y11325100D01*
X39063930Y11325100D02*
X39022530Y11066780D01*
X39022530Y11066780D02*
X38974520Y10809220D01*
X38974520Y10809220D02*
X38920170Y10553190D01*
X38920170Y10553190D02*
X38859710Y10298430D01*
X38859710Y10298430D02*
X38793170Y10045190D01*
X38793170Y10045190D02*
X38720010Y9793730D01*
X38720010Y9793730D02*
X38641020Y9544050D01*
X38641020Y9544050D02*
X38555930Y9296650D01*
X38555930Y9296650D02*
X38464740Y9051040D01*
X38464740Y9051040D02*
X38367460Y8807960D01*
X38367460Y8807960D02*
X38264340Y8567420D01*
X38264340Y8567420D02*
X38155370Y8329420D01*
X38155370Y8329420D02*
X38040310Y8093960D01*
X38040310Y8093960D02*
X37919910Y7861550D01*
X37919910Y7861550D02*
X37793680Y7632190D01*
X37793680Y7632190D02*
X37661850Y7406130D01*
X37661850Y7406130D02*
X37524440Y7183120D01*
X37524440Y7183120D02*
X37381690Y6963660D01*
X37381690Y6963660D02*
X37233610Y6747760D01*
X37233610Y6747760D02*
X37080190Y6535670D01*
X37080190Y6535670D02*
X36921690Y6327140D01*
X36921690Y6327140D02*
X36757860Y6122670D01*
X36757860Y6122670D02*
X36589460Y5922520D01*
X36589460Y5922520D02*
X36415980Y5726430D01*
X36415980Y5726430D02*
X36237670Y5534410D01*
X36237670Y5534410D02*
X36054790Y5347210D01*
X36054790Y5347210D02*
X35867590Y5164330D01*
X35867590Y5164330D02*
X35675570Y4986020D01*
X35675570Y4986020D02*
X35479480Y4812540D01*
X35479480Y4812540D02*
X35279330Y4644140D01*
X35279330Y4644140D02*
X35074860Y4480310D01*
X35074860Y4480310D02*
X34866330Y4321810D01*
X34866330Y4321810D02*
X34654240Y4168390D01*
X34654240Y4168390D02*
X34438340Y4020310D01*
X34438340Y4020310D02*
X34218880Y3877560D01*
X34218880Y3877560D02*
X33995870Y3740150D01*
X33995870Y3740150D02*
X33769810Y3608320D01*
X33769810Y3608320D02*
X33540450Y3482090D01*
X33540450Y3482090D02*
X33308040Y3361690D01*
X33308040Y3361690D02*
X33072580Y3246630D01*
X33072580Y3246630D02*
X32834580Y3137660D01*
X32834580Y3137660D02*
X32594040Y3034540D01*
X32594040Y3034540D02*
X32350960Y2937260D01*
X32350960Y2937260D02*
X32105350Y2846070D01*
X32105350Y2846070D02*
X31857950Y2760980D01*
X31857950Y2760980D02*
X31608270Y2681990D01*
X31608270Y2681990D02*
X31356810Y2608830D01*
X31356810Y2608830D02*
X31103570Y2542290D01*
X31103570Y2542290D02*
X30848810Y2481830D01*
X30848810Y2481830D02*
X30592780Y2427480D01*
X30592780Y2427480D02*
X30335220Y2379470D01*
X30335220Y2379470D02*
X30076900Y2338070D01*
X30076900Y2338070D02*
X29817310Y2302760D01*
X29817310Y2302760D02*
X29557220Y2273810D01*
X29557220Y2273810D02*
X29296360Y2251460D01*
X29296360Y2251460D02*
X29034990Y2235450D01*
X29034990Y2235450D02*
X28773370Y2225800D01*
X28773370Y2225800D02*
X28511500Y2222500D01*
X28511500Y2222500D02*
X28249630Y2225800D01*
X28249630Y2225800D02*
X27988010Y2235450D01*
X27988010Y2235450D02*
X27726640Y2251460D01*
X27726640Y2251460D02*
X27465780Y2273810D01*
X27465780Y2273810D02*
X27205690Y2302760D01*
X27205690Y2302760D02*
X26946100Y2338070D01*
X26946100Y2338070D02*
X26687780Y2379470D01*
X26687780Y2379470D02*
X26430220Y2427480D01*
X26430220Y2427480D02*
X26174190Y2481830D01*
X26174190Y2481830D02*
X25919430Y2542290D01*
X25919430Y2542290D02*
X25666190Y2608830D01*
X25666190Y2608830D02*
X25414730Y2681990D01*
X25414730Y2681990D02*
X25165050Y2760980D01*
X25165050Y2760980D02*
X24917650Y2846070D01*
X24917650Y2846070D02*
X24672040Y2937260D01*
X24672040Y2937260D02*
X24428960Y3034540D01*
X24428960Y3034540D02*
X24188420Y3137660D01*
X24188420Y3137660D02*
X23950420Y3246630D01*
X23950420Y3246630D02*
X23714960Y3361690D01*
X23714960Y3361690D02*
X23482550Y3482090D01*
X23482550Y3482090D02*
X23253190Y3608320D01*
X23253190Y3608320D02*
X23027130Y3740150D01*
X23027130Y3740150D02*
X22804120Y3877560D01*
X22804120Y3877560D02*
X22584660Y4020310D01*
X22584660Y4020310D02*
X22368760Y4168390D01*
X22368760Y4168390D02*
X22156670Y4321810D01*
X22156670Y4321810D02*
X21948140Y4480310D01*
X21948140Y4480310D02*
X21743670Y4644140D01*
X21743670Y4644140D02*
X21543520Y4812540D01*
X21543520Y4812540D02*
X21347430Y4986020D01*
X21347430Y4986020D02*
X21155410Y5164330D01*
X21155410Y5164330D02*
X20968210Y5347210D01*
X20968210Y5347210D02*
X20785330Y5534410D01*
X20785330Y5534410D02*
X20607020Y5726430D01*
X20607020Y5726430D02*
X20433540Y5922520D01*
X20433540Y5922520D02*
X20265140Y6122670D01*
X20265140Y6122670D02*
X20101310Y6327140D01*
X20101310Y6327140D02*
X19942810Y6535670D01*
X19942810Y6535670D02*
X19789390Y6747760D01*
X19789390Y6747760D02*
X19641310Y6963660D01*
X19641310Y6963660D02*
X19498560Y7183120D01*
X19498560Y7183120D02*
X19361150Y7406130D01*
X19361150Y7406130D02*
X19229320Y7632190D01*
X19229320Y7632190D02*
X19103090Y7861550D01*
X19103090Y7861550D02*
X18982690Y8093960D01*
X18982690Y8093960D02*
X18867630Y8329420D01*
X18867630Y8329420D02*
X18758660Y8567420D01*
X18758660Y8567420D02*
X18655540Y8807960D01*
X18655540Y8807960D02*
X18558260Y9051040D01*
X18558260Y9051040D02*
X18467070Y9296650D01*
X18467070Y9296650D02*
X18381980Y9544050D01*
X18381980Y9544050D02*
X18302990Y9793730D01*
X18302990Y9793730D02*
X18229830Y10045190D01*
X18229830Y10045190D02*
X18163290Y10298430D01*
X18163290Y10298430D02*
X18102830Y10553190D01*
X18102830Y10553190D02*
X18048480Y10809220D01*
X18048480Y10809220D02*
X18000470Y11066780D01*
X18000470Y11066780D02*
X17959070Y11325100D01*
X17959070Y11325100D02*
X17923760Y11584690D01*
X17923760Y11584690D02*
X17894810Y11844780D01*
X17894810Y11844780D02*
X17872460Y12105640D01*
X17872460Y12105640D02*
X17856450Y12367010D01*
X17856450Y12367010D02*
X17846800Y12628630D01*
X17846800Y12628630D02*
X17843500Y12890500D01*
M02*
